# xmcd
#
# Track frame offsets:
# 150
# 14432
# 53746
# 63485
# 86159
# 97213
# 140462
# 159777
# 170260
# 191189
# 206163
# 216496
# 231426
# 253292
# 282125
#
# Disc length: 3883 seconds
#
#
# Revision: 0
# Processed by: cddbd v1.5.2PL0 Copyright (c) Steve Scherf et al.
# Submitted via: FreeRIP 2.945 
#
DISCID=e70f290f
DTITLE=Terry Lee Burns - 
DYEAR=1900
DGENRE=Ballad
TTITLE0=The Devil And The Deep Blue Sea
TTITLE1=April, A Long Time Ago
TTITLE2=Midnight In Paris
TTITLE3=Almost Beautiful
TTITLE4=Swear To God
TTITLE5=The Amazement Of George
TTITLE6=The King And Queen Of Dreamland
TTITLE7=Every Blue Highway
TTITLE8=Make It Easy
TTITLE9=Oblivia
TTITLE10=I Turned The Corner
TTITLE11=Set Me Free
TTITLE12=Wagging The Dog
TTITLE13=Some Sunny Day
TTITLE14=Extra
EXTD=
EXTT0=
EXTT1=
EXTT2=
EXTT3=
EXTT4=
EXTT5=
EXTT6=
EXTT7=
EXTT8=
EXTT9=
EXTT10=
EXTT11=
EXTT12=
EXTT13=
EXTT14=
PLAYORDER=
